<?xml version="1.0" standalone="no"?><!DOCTYPE svg PUBLIC "-//W3C//DTD SVG 1.1//EN" "http://www.w3.org/Graphics/SVG/1.1/DTD/svg11.dtd"><svg t="1717741565240" class="icon" viewBox="0 0 1024 1024" version="1.1" xmlns="http://www.w3.org/2000/svg" p-id="11787" xmlns:xlink="http://www.w3.org/1999/xlink" width="200" height="200"><path d="M109.866667 934.634667c-10.327467-4.765867-16.827733-11.52-21.230934-22.062934-2.8992-6.933333-3.296-31.210667-3.255466-198.370133 0.042667-180.616533 0.2496-190.909867 3.985066-199.0016 4.765867-10.327467 11.52-16.827733 22.062934-21.230933C118.318933 491.089067 139.5456 490.666667 277.333333 490.666667s159.0144 0.4224 165.905067 3.3024c10.542933 4.4032 17.297067 10.903467 22.062933 21.230933 3.733333 8.091733 3.940267 18.385067 3.985067 199.0016 0.042667 167.1616-0.356267 191.4368-3.255467 198.370133-4.4032 10.542933-10.903467 17.297067-21.230933 22.062934-8.055467 3.716267-17.4528 3.938133-167.466667 3.938133s-159.4112-0.221867-167.466666-3.938133zM384 714.666667v-138.666667H170.666667v277.333333h213.333333z m195.2 219.968c-10.327467-4.765867-16.827733-11.52-21.230933-22.062934-2.858667-6.8352-3.296-24.9728-3.255467-134.370133 0.042667-118.3936 0.298667-127.012267 3.985067-135.0016 4.765867-10.327467 11.52-16.827733 22.062933-21.230933 6.894933-2.88 28.091733-3.296 166.370133-3.255467 149.504 0.042667 158.9504 0.2688 167.0016 3.985067 10.327467 4.765867 16.827733 11.52 21.230934 22.062933 4.9664 11.886933 4.9664 255.9232 0 267.810133-4.4032 10.542933-10.903467 17.297067-21.230934 22.062934-8.055467 3.716267-17.4528 3.938133-167.466666 3.938133s-159.4112-0.221867-167.466667-3.938133zM853.333333 778.666667v-74.666667H640v149.333333h213.333333zM579.2 529.301333c-10.327467-4.765867-16.827733-11.52-21.230933-22.062933-2.8992-6.933333-3.296-31.210667-3.255467-198.370133 0.042667-180.616533 0.2496-190.909867 3.985067-199.0016 4.765867-10.327467 11.52-16.827733 22.062933-21.230934C587.652267 85.755733 608.878933 85.333333 746.666667 85.333333s159.0144 0.4224 165.905066 3.3024c10.542933 4.4032 17.297067 10.903467 22.062934 21.230934 3.733333 8.091733 3.940267 18.385067 3.985066 199.0016 0.042667 167.1616-0.356267 191.4368-3.255466 198.370133-4.4032 10.542933-10.903467 17.297067-21.230934 22.062933-8.055467 3.716267-17.4528 3.938133-167.466666 3.938134s-159.4112-0.221867-167.466667-3.938134zM853.333333 309.333333V170.666667H640v277.333333h213.333333zM109.866667 401.301333c-10.327467-4.765867-16.827733-11.52-21.230934-22.062933-2.858667-6.8352-3.296-24.9728-3.255466-134.370133 0.042667-118.3936 0.298667-127.012267 3.985066-135.0016 4.765867-10.327467 11.52-16.827733 22.062934-21.230934 6.894933-2.88 28.091733-3.296 166.370133-3.255466 149.504 0.042667 158.9504 0.2688 167.0016 3.985066 10.327467 4.765867 16.827733 11.52 21.230933 22.062934 4.9664 11.886933 4.9664 255.9232 0 267.810133-4.4032 10.542933-10.903467 17.297067-21.230933 22.062933-8.055467 3.716267-17.4528 3.938133-167.466667 3.938134s-159.4112-0.221867-167.466666-3.938134zM384 245.333333V170.666667H170.666667v149.333333h213.333333z" fill="#A9D5FE" p-id="11788"></path><path d="M113.5168 936.285867c-9.774933-2.858667-23.210667-16.938667-25.984-27.234134-1.570133-5.838933-2.107733-68.260267-1.710933-199.0464L86.4 519.466667l5.0624-8.142934c2.784-4.48 8.955733-10.72 13.710933-13.866666l8.648534-5.723734h327.022933l8.648533 5.723734c4.757333 3.146667 10.926933 9.386667 13.710934 13.866666l5.0624 8.142934v390.4l-5.0624 8.142933c-2.784 4.48-8.9536 10.72-13.7088 13.866667l-8.648534 5.723733-160.155733 0.366933c-97.3056 0.224-162.912-0.437333-167.1744-1.681066zM384 714.666667v-138.666667H170.666667v277.333333h213.333333z m198.850133 221.6192c-9.813333-2.869333-23.210667-16.936533-26.0032-27.3088-1.568-5.8304-2.1184-49.1904-1.710933-135.204267l0.597333-126.621867 5.723734-8.6464c3.146667-4.7552 9.386667-10.922667 13.866666-13.7088l8.142934-5.0624h326.711466l8.648534 5.723734c4.757333 3.146667 10.926933 9.386667 13.710933 13.866666l5.0624 8.142934v262.4l-5.0624 8.142933c-2.784 4.48-8.9536 10.72-13.7088 13.866667l-8.648533 5.723733-160.155734 0.366933c-97.3056 0.224-162.912-0.437333-167.1744-1.681066zM853.333333 778.666667v-74.666667H640v149.333333h213.333333zM582.850133 530.952533c-9.774933-2.858667-23.210667-16.938667-25.984-27.234133-1.570133-5.838933-2.107733-68.260267-1.710933-199.0464L555.733333 114.133333l5.0624-8.142933c2.784-4.48 8.955733-10.72 13.710934-13.866667l8.648533-5.723733h327.022933l8.648534 5.723733c4.757333 3.146667 10.926933 9.386667 13.710933 13.866667L937.6 114.133333v390.4l-5.0624 8.142934c-2.784 4.48-8.9536 10.72-13.7088 13.866666l-8.648533 5.723734-160.155734 0.366933c-97.3056 0.224-162.912-0.4352-167.1744-1.681067zM853.333333 309.333333V170.666667H640v277.333333h213.333333zM113.5168 402.952533c-9.813333-2.869333-23.210667-16.936533-26.0032-27.3088-1.568-5.828267-2.1184-49.1904-1.710933-135.204266l0.597333-126.621867 5.723733-8.6464c3.146667-4.7552 9.386667-10.922667 13.866667-13.7088L114.133333 86.4h326.711467l8.648533 5.723733c4.757333 3.146667 10.926933 9.386667 13.710934 13.866667L468.266667 114.133333v262.4l-5.0624 8.142934c-2.784 4.48-8.9536 10.72-13.7088 13.866666l-8.648534 5.723734-160.155733 0.366933c-97.3056 0.224-162.912-0.4352-167.1744-1.681067zM384 245.333333V170.666667H170.666667v149.333333h213.333333z" fill="#8AC6FE" p-id="11789"></path><path d="M113.864533 936.375467c-9.745067-2.865067-23.6224-17.265067-26.3296-27.323734-1.572267-5.838933-2.109867-68.330667-1.713066-199.227733l0.578133-190.724267 6.1632-8.891733c3.389867-4.891733 9.629867-11.050667 13.866667-13.6832L114.133333 491.733333h326.4l7.703467 4.791467c4.2368 2.634667 10.4768 8.791467 13.866667 13.6832l6.1632 8.893867V909.866667l-4.791467 7.703466c-2.634667 4.2368-8.791467 10.4768-13.6832 13.866667l-8.891733 6.1632-160.183467 0.366933c-92.288 0.213333-163.008-0.462933-166.852267-1.591466zM384 714.666667v-138.666667H170.666667v277.333333h213.333333z m199.197867 221.7088c-9.783467-2.875733-23.620267-17.262933-26.350934-27.400534-1.568-5.826133-2.1184-49.207467-1.710933-135.227733l0.597333-126.6496 6.1632-8.891733c3.389867-4.8896 9.629867-11.0464 13.866667-13.681067l7.703467-4.791467h326.4l7.703466 4.791467c4.2368 2.634667 10.4768 8.791467 13.866667 13.6832l6.1632 8.893867V909.866667l-4.791467 7.703466c-2.634667 4.2368-8.791467 10.4768-13.6832 13.866667l-8.891733 6.1632-160.183467 0.366933c-92.288 0.213333-163.008-0.462933-166.852266-1.591466zM853.333333 778.666667v-74.666667H640v149.333333h213.333333zM583.197867 531.042133c-9.745067-2.865067-23.6224-17.265067-26.3296-27.323733-1.572267-5.838933-2.109867-68.330667-1.713067-199.227733l0.578133-190.724267 6.1632-8.891733c3.389867-4.891733 9.629867-11.050667 13.866667-13.6832L583.466667 86.4h326.4l7.703466 4.791467c4.2368 2.634667 10.4768 8.791467 13.866667 13.6832l6.1632 8.893866V504.533333l-4.791467 7.703467c-2.634667 4.2368-8.791467 10.4768-13.6832 13.866667l-8.891733 6.1632-160.183467 0.366933c-92.288 0.213333-163.008-0.462933-166.852266-1.591467zM853.333333 309.333333V170.666667H640v277.333333h213.333333zM113.864533 403.042133c-9.783467-2.875733-23.620267-17.262933-26.350933-27.400533-1.568-5.826133-2.1184-49.207467-1.710933-135.227733l0.597333-126.6496 6.1632-8.891734c3.389867-4.8896 9.629867-11.0464 13.866667-13.681066L114.133333 86.4h326.4l7.703467 4.791467c4.2368 2.634667 10.4768 8.791467 13.866667 13.6832l6.1632 8.893866V376.533333l-4.791467 7.703467c-2.634667 4.2368-8.791467 10.4768-13.6832 13.866667l-8.891733 6.1632-160.183467 0.366933c-92.288 0.213333-163.008-0.462933-166.852267-1.591467zM384 245.333333V170.666667H170.666667v149.333333h213.333333z" fill="#7FC0FE" p-id="11790"></path><path d="M116.829867 936.5696c-10.9632-3.351467-20.957867-11.125333-25.696-19.985067L86.4 907.733333v-386.133333l5.9584-10.1376c3.889067-6.613333 9.077333-11.803733 14.933333-14.933333L116.266667 491.733333h322.133333l8.974933 4.795734c5.856 3.1296 11.044267 8.32 14.933334 14.933333l5.9584 10.1376v386.133333l-4.795734 8.974934c-3.1296 5.856-8.32 11.044267-14.933333 14.933333L438.4 937.6l-157.866667 0.3776c-86.826667 0.206933-160.4928-0.426667-163.703466-1.408zM384 714.666667v-138.666667H170.666667v277.333333h213.333333z m202.1632 221.902933c-10.9632-3.351467-20.957867-11.125333-25.696-19.985067L555.733333 907.733333v-258.133333l5.9584-10.1376c3.889067-6.613333 9.077333-11.803733 14.933334-14.933333l8.974933-4.795734h322.133333l8.974934 4.795734c5.856 3.1296 11.044267 8.32 14.933333 14.933333l5.9584 10.1376v258.133333l-4.795733 8.974934c-3.1296 5.856-8.32 11.044267-14.933334 14.933333L907.733333 937.6l-157.866666 0.3776c-86.826667 0.206933-160.4928-0.426667-163.703467-1.408zM853.333333 778.666667v-74.666667H640v149.333333h213.333333zM586.1632 531.236267c-10.9632-3.351467-20.957867-11.125333-25.696-19.985067L555.733333 502.4v-386.133333l5.9584-10.1376c3.889067-6.613333 9.077333-11.803733 14.933334-14.933334L585.6 86.4h322.133333l8.974934 4.795733c5.856 3.1296 11.044267 8.32 14.933333 14.933334L937.6 116.266667v386.133333l-4.795733 8.974933c-3.1296 5.856-8.32 11.044267-14.933334 14.933334L907.733333 532.266667l-157.866666 0.3776c-86.826667 0.206933-160.4928-0.426667-163.703467-1.408zM853.333333 309.333333V170.666667H640v277.333333h213.333333zM116.829867 403.236267c-10.9632-3.351467-20.957867-11.125333-25.696-19.985067L86.4 374.4v-258.133333l5.9584-10.1376c3.889067-6.613333 9.077333-11.803733 14.933333-14.933334L116.266667 86.4h322.133333l8.974933 4.795733c5.856 3.1296 11.044267 8.32 14.933334 14.933334L468.266667 116.266667v258.133333l-4.795734 8.974933c-3.1296 5.856-8.32 11.044267-14.933333 14.933334L438.4 404.266667l-157.866667 0.3776c-86.826667 0.206933-160.4928-0.426667-163.703466-1.408zM384 245.333333V170.666667H170.666667v149.333333h213.333333z" fill="#6FB9FE" p-id="11791"></path><path d="M118.097067 936.6656c-11.044267-2.688-20.8768-10.0352-26.4448-19.761067L86.4 907.733333v-386.133333l5.6576-9.621333c3.485867-5.930667 9.218133-11.662933 14.933333-14.933334l9.275734-5.312h322.133333l9.275733 5.312c5.7152 3.2704 11.447467 9.002667 14.933334 14.933334l5.6576 9.621333v386.133333l-5.312 9.275734c-3.2704 5.7152-9.002667 11.447467-14.933334 14.933333l-9.621333 5.6576-156.8 0.347733c-86.24 0.192-159.816533-0.384-163.502933-1.282133zM384 714.666667v-138.666667H170.666667v277.333333h213.333333z m203.4304 221.998933c-11.044267-2.688-20.8768-10.0352-26.4448-19.761067L555.733333 907.733333v-258.133333l5.6576-9.621333c3.485867-5.930667 9.218133-11.662933 14.933334-14.933334l9.275733-5.312h322.133333l9.621334 5.6576c5.930667 3.485867 11.662933 9.218133 14.933333 14.933334l5.312 9.275733v258.133333l-5.312 9.275734c-3.2704 5.7152-9.002667 11.447467-14.933333 14.933333l-9.621334 5.6576-156.8 0.347733c-86.24 0.192-159.816533-0.384-163.502933-1.282133zM853.333333 778.666667v-74.666667H640v149.333333h213.333333zM587.4304 531.332267c-11.044267-2.688-20.8768-10.0352-26.4448-19.761067L555.733333 502.4v-386.133333l5.6576-9.621334c3.485867-5.930667 9.218133-11.662933 14.933334-14.933333l9.275733-5.312h322.133333l9.275734 5.312c5.7152 3.2704 11.447467 9.002667 14.933333 14.933333l5.6576 9.621334v386.133333l-5.312 9.275733c-3.2704 5.7152-9.002667 11.447467-14.933333 14.933334l-9.621334 5.6576-156.8 0.347733c-86.24 0.192-159.816533-0.384-163.502933-1.282133zM853.333333 309.333333V170.666667H640v277.333333h213.333333zM118.097067 403.332267c-11.044267-2.688-20.8768-10.0352-26.4448-19.761067L86.4 374.4v-258.133333l5.6576-9.621334c3.485867-5.930667 9.218133-11.662933 14.933333-14.933333L116.266667 86.4h322.133333l9.621333 5.6576c5.930667 3.485867 11.662933 9.218133 14.933334 14.933333l5.312 9.275734v258.133333l-5.312 9.275733c-3.2704 5.7152-9.002667 11.447467-14.933334 14.933334l-9.621333 5.6576-156.8 0.347733c-86.24 0.192-159.816533-0.384-163.502933-1.282133zM384 245.333333V170.666667H170.666667v149.333333h213.333333z" fill="#43A4FE" p-id="11792"></path><path d="M118.427733 936.247467c-12.4608-2.916267-21.858133-10.171733-27.259733-21.047467l-4.768-9.6-0.593067-184.533333c-0.4032-125.28 0.1408-187.957333 1.691734-195.2 3.0848-14.404267 9.787733-23.645867 21.301333-29.365334l9.6-4.768h317.866667l9.6 4.768c11.5136 5.717333 18.218667 14.961067 21.301333 29.365334 1.550933 7.242667 2.094933 69.92 1.691733 195.2l-0.593066 184.533333-4.768 9.6c-5.546667 11.163733-14.788267 18.077867-28.298667 21.166933-12.2624 2.805333-304.753067 2.6944-316.772267-0.119466zM384 714.666667v-138.666667H170.666667v277.333333h213.333333z m203.761067 221.5808c-12.4608-2.916267-21.858133-10.171733-27.259734-21.047467-4.7424-9.546667-4.772267-10.267733-5.386666-130.0288-0.413867-80.64 0.145067-123.989333 1.691733-131.2 3.1104-14.506667 9.792-23.739733 21.326933-29.469867l9.6-4.768h317.866667l9.6 4.768c11.534933 5.730133 18.216533 14.961067 21.326933 29.469867 1.546667 7.210667 2.1056 50.56 1.691734 131.2-0.6144 119.761067-0.644267 120.482133-5.386667 130.0288-5.546667 11.163733-14.788267 18.077867-28.298667 21.166933-12.2624 2.805333-304.753067 2.6944-316.772266-0.119466zM853.333333 778.666667v-74.666667H640v149.333333h213.333333zM587.761067 530.914133c-12.4608-2.916267-21.858133-10.171733-27.259734-21.047466l-4.768-9.6-0.593066-184.533334c-0.4032-125.28 0.1408-187.957333 1.691733-195.2 3.0848-14.404267 9.787733-23.645867 21.301333-29.365333l9.6-4.768h317.866667l9.6 4.768c11.5136 5.717333 18.218667 14.961067 21.301333 29.365333 1.550933 7.242667 2.094933 69.92 1.691734 195.2l-0.593067 184.533334-4.768 9.6c-5.546667 11.163733-14.788267 18.077867-28.298667 21.166933-12.2624 2.805333-304.753067 2.6944-316.772266-0.119467zM853.333333 309.333333V170.666667H640v277.333333h213.333333zM118.427733 402.914133c-12.4608-2.916267-21.858133-10.171733-27.259733-21.047466-4.7424-9.546667-4.772267-10.267733-5.386667-130.0288-0.413867-80.64 0.145067-123.989333 1.691734-131.2 3.1104-14.506667 9.792-23.739733 21.326933-29.469867l9.6-4.768h317.866667l9.6 4.768c11.534933 5.730133 18.216533 14.961067 21.326933 29.469867 1.546667 7.210667 2.1056 50.56 1.691733 131.2-0.6144 119.761067-0.644267 120.482133-5.386666 130.0288-5.546667 11.163733-14.788267 18.077867-28.298667 21.166933-12.2624 2.805333-304.753067 2.6944-316.772267-0.119467zM384 245.333333V170.666667H170.666667v149.333333h213.333333z" fill="#2B98FE" p-id="11793"></path><path d="M119.5904 936.379733c-11.562667-2.314667-22.865067-11.0976-28.7744-22.359466-4.352-8.298667-4.424533-11.072-5.0176-191.569067-0.394667-120.247467 0.16-187.268267 1.617067-195.146667 2.602667-14.090667 10.304-24.725333 22.564266-31.1552 8.298667-4.352 10.752-4.416 167.3536-4.416s159.057067 0.064 167.3536 4.416c12.017067 6.304 19.904 17.034667 22.4704 30.562134 2.9568 15.592533 2.9568 360.32 0 375.9104-2.564267 13.527467-10.453333 24.256-22.4704 30.562133-8.270933 4.337067-11.1488 4.4224-162.020266 4.757333-84.48 0.1856-157.864533-0.516267-163.076267-1.5616zM384 714.666667v-138.666667H170.666667v277.333333h213.333333z m204.923733 221.674666c-11.5456-2.263467-22.8544-11.037867-28.7744-22.321066-4.322133-8.241067-4.416-11.114667-4.416-135.3536s0.093867-127.112533 4.416-135.3536c6.304-12.017067 17.034667-19.904 30.562134-22.4704 15.4944-2.939733 296.416-2.939733 311.9104 0 13.527467 2.564267 24.256 10.453333 30.562133 22.4704 4.322133 8.241067 4.416 11.114667 4.416 135.3536s-0.093867 127.112533-4.416 135.3536c-6.304 12.017067-17.034667 19.904-30.562133 22.4704-14.144 2.683733-299.950933 2.545067-313.698134-0.149334zM853.333333 778.666667v-74.666667H640v149.333333h213.333333zM588.923733 531.0464c-11.562667-2.314667-22.865067-11.0976-28.7744-22.359467-4.352-8.298667-4.424533-11.072-5.0176-191.569066-0.394667-120.247467 0.16-187.268267 1.617067-195.146667 2.602667-14.090667 10.304-24.725333 22.564267-31.1552 8.298667-4.352 10.752-4.416 167.3536-4.416s159.057067 0.064 167.3536 4.416c12.017067 6.304 19.904 17.034667 22.4704 30.562133 2.9568 15.592533 2.9568 360.32 0 375.9104-2.564267 13.527467-10.453333 24.256-22.4704 30.562134-8.270933 4.337067-11.1488 4.4224-162.020267 4.757333-84.48 0.1856-157.864533-0.516267-163.076267-1.5616zM853.333333 309.333333V170.666667H640v277.333333h213.333333zM119.5904 403.008c-11.5456-2.263467-22.8544-11.037867-28.7744-22.321067-4.322133-8.241067-4.416-11.114667-4.416-135.3536s0.093867-127.112533 4.416-135.3536c6.304-12.017067 17.034667-19.904 30.562133-22.4704 15.4944-2.939733 296.416-2.939733 311.9104 0 13.527467 2.564267 24.256 10.453333 30.562134 22.4704 4.322133 8.241067 4.416 11.114667 4.416 135.3536s-0.093867 127.112533-4.416 135.3536c-6.304 12.017067-17.034667 19.904-30.562134 22.4704-14.144 2.683733-299.950933 2.545067-313.698133-0.149333zM384 245.333333V170.666667H170.666667v149.333333h213.333333z" fill="#178FFE" p-id="11794"></path></svg>